<svg width="100" height="100" viewBox="0 0 100 100" xmlns="http://www.w3.org/2000/svg">
  <rect width="100" height="100" fill="#1a0808" rx="20"/>
  <g fill="none" stroke="#d4af37" stroke-width="4">
    <path d="M50,85 Q50,60 50,50"/>
    <path d="M50,50 C30,50 10,40 20,20 C25,10 40,10 45,25 C47,35 35,40 30,30"/>
    <path d="M50,50 C70,50 90,40 80,20 C75,10 60,10 55,25 C53,35 65,40 70,30"/>
    <path d="M50,50 C40,40 45,20 50,10 C55,20 60,40 50,50 Z"/>
    <path d="M50,70 Q30,70 20,85"/>
    <path d="M50,70 Q70,70 80,85"/>
  </g>
</svg>
